<svg xmlns="http://www.w3.org/2000/svg" viewBox="0 0 166.26 62.26"><defs><style>.cls-1{fill:#0e4592;}</style></defs><title>Asset 7</title><g id="Layer_2" data-name="Layer 2"><g id="Layer_1-2" data-name="Layer 1"><path class="cls-1" d="M121.47,60.93c-.52,0-.26.7-.33.84C122,61.5,121.43,60.75,121.47,60.93Z"/><polygon class="cls-1" points="129.7 58.06 129.6 58.38 130.7 57.43 129.7 58.06"/><path class="cls-1" d="M137.47,56.28c-1-1-2.75.91-4.24.83l-.29-.22-.41,1.1C134.2,57.44,136.22,56.32,137.47,56.28Z"/><path class="cls-1" d="M142.41,57.55c-.41-.36.78-.69-1,.19a1.62,1.62,0,0,1,.22.06A5.44,5.44,0,0,1,142.41,57.55Z"/><path class="cls-1" d="M141.6,57.8c-.82.31.67.2,0,0Z"/><path class="cls-1" d="M145.33,56.18l-.94.82c.33.18,1.33-.14,1,.19C146.47,56.54,146.13,56.37,145.33,56.18Z"/><path class="cls-1" d="M146,55l-.48.38C145.67,55.4,145.83,55.38,146,55Z"/><path class="cls-1" d="M144.49,56.15l1-.82c-.23-.12-.39-.49-.49.34C145,55.29,144.9,55.71,144.49,56.15Z"/><path class="cls-1" d="M143.75,56.23c-.7,0-1.53.05-.59-.71C141.16,56.37,141.73,57.1,143.75,56.23Z"/><path class="cls-1" d="M137.52,54.94l-.88-.12-.58.59C136.35,55.12,137.67,55.3,137.52,54.94Z"/><path class="cls-1" d="M152.29,53.71c-.06-.27-.69-.43-.92-.69l-.64.67C151.21,53.64,152.05,53.4,152.29,53.71Z"/><path class="cls-1" d="M151.37,53c.31-.33.63-.66.93-1C151.26,52.52,151.17,52.8,151.37,53Z"/><polygon class="cls-1" points="145.69 53.61 144.12 55.23 146.05 53.45 145.69 53.61"/><polygon class="cls-1" points="156.74 51.01 156.43 51.97 157.06 50.41 156.74 51.01"/><path class="cls-1" d="M159.51,48.73c-.14.77,1.21.1.91.75a7,7,0,0,0,1.35-2.57A4.38,4.38,0,0,1,159.51,48.73Z"/><path class="cls-1" d="M162.24,45.48a12,12,0,0,0-.47,1.43A4.54,4.54,0,0,0,162.24,45.48Z"/><path class="cls-1" d="M154.29,51a1.33,1.33,0,0,0,1.29.06l-.84-.32Z"/><path class="cls-1" d="M154.71,50.71h0l1-.61Z"/><path class="cls-1" d="M154.18,51.05l.11-.07C154.21,51,154.17,50.94,154.18,51.05Z"/><path class="cls-1" d="M149,52.89c.51-.69,1.65-1.8.06-1.68C148.77,51.9,149.7,51.85,149,52.89Z"/><path class="cls-1" d="M153.15,50.59l-1.26.55c.12.16.47.28.25.65Z"/><polygon class="cls-1" points="153.6 50.05 153.15 50.59 153.62 50.38 153.6 50.05"/><path class="cls-1" d="M159.89,47a8.71,8.71,0,0,1,1.23-1.87c-.66.63-1.37,1.12-2,1.73C159.23,47.1,159.24,47.67,159.89,47Z"/><path class="cls-1" d="M157.38,48.91l.08-.12C157.36,48.79,157.29,48.82,157.38,48.91Z"/><path class="cls-1" d="M165,37.4l-.16.11.12.06Z"/><path class="cls-1" d="M159,46.85a1.82,1.82,0,0,0-.85,1.09c.32-.35.67-.69,1-1.09C159.12,46.73,159.08,46.68,159,46.85Z"/><path class="cls-1" d="M163.41,43.3c-.34.24-.68.53-1,.82C162.78,44,163.5,43.52,163.41,43.3Z"/><path class="cls-1" d="M157.75,48.81a.41.41,0,0,1-.05.09C158,48.89,157.89,48.85,157.75,48.81Z"/><path class="cls-1" d="M157.75,48.81a3.21,3.21,0,0,0,.36-.87,6,6,0,0,0-.65.85A1,1,0,0,1,157.75,48.81Z"/><path class="cls-1" d="M160.56,34.61a1.14,1.14,0,0,1,.79,1,2,2,0,0,1-.57,1.74c.08.64.7,1,1.5,1a4.15,4.15,0,0,0,2.59-.84c-.29-.1-.54-.19-.71-1.8-.23.26-.57,1.09-.91,1.63s-.78.8-.9.15c0-.94.1-1.31.3-1.55s.46-.37.64-.83c-.43.38-.73-.27-1.08-.87s-.88-1.18-1.46-.93a7.62,7.62,0,0,1,.5,1.41C161.05,34.73,160.75,34.23,160.56,34.61Z"/><path class="cls-1" d="M163.83,40.53l-.21.66a19.24,19.24,0,0,1,1.77-1.95c0-1.26-.18-1.54-.4-1.67a14.66,14.66,0,0,1-1.16,3.21Z"/><path class="cls-1" d="M162.08,43.77c-.3-.88.21-2.27-1-2a2.42,2.42,0,0,0-.48,1.37,1.74,1.74,0,0,1-.11,1c1.68-2.34-.21.91,1.47-.48a9.38,9.38,0,0,1-.88,1.38c.42-.36.84-.7,1.26-1l-.08,0h0c-.16,0-.23,0-.09,0s0,0,0-.06a.87.87,0,0,1-.14-.27c.62-.68.24,0,.14.27,0,0,0,.07.07.1h0c.26-.47.48-1,.71-1.45l.34-.72c.1-.25.18-.53.27-.79C163.25,41.82,162.82,42.49,162.08,43.77Z"/><path class="cls-1" d="M149.47,49.18a.21.21,0,0,1,.15.11C149.72,49.14,149.74,49.06,149.47,49.18Z"/><path class="cls-1" d="M150.58,49.1c-.1.18-.1.51-.66.71-.55,0-.16-.31-.3-.52-.21.34-.85,1.05.31.85L150,50c1-.2,2.6-.13,2.51.06A5.47,5.47,0,0,0,150.58,49.1Z"/><path class="cls-1" d="M156.31,47c.48-.58,1-1.08,1.42-1.7a10.24,10.24,0,0,1-1.25.25l.3.26C155.74,46.49,156.24,46.7,156.31,47Z"/><path class="cls-1" d="M165.44,37.15l.71.52c-.27-.64-.55-1.24-.85-1.8Z"/><polygon class="cls-1" points="165.56 33.49 166.26 33.59 165.74 32.65 165.56 33.49"/><path class="cls-1" d="M26.25,15l-.51.33A2.36,2.36,0,0,0,26.25,15Z"/><path class="cls-1" d="M30.29,14l0-.35C30.17,13.87,30.12,14,30.29,14Z"/><path class="cls-1" d="M108.88,1.17c-.86-.66-1.81-1.66-1.72-.89l.26.75A2.36,2.36,0,0,1,108.88,1.17Z"/><path class="cls-1" d="M64.45,5.81l.27.21.55-.74Z"/><path class="cls-1" d="M64,8.93l-1.16-.42A4.81,4.81,0,0,0,64,8.93Z"/><path class="cls-1" d="M9.16,24.6a5.67,5.67,0,0,0,.5.68C9.91,24.82,9.47,24.82,9.16,24.6Z"/><path class="cls-1" d="M147.57,9.59A6.34,6.34,0,0,0,146.09,8C146.73,9,147,9.94,147.57,9.59Z"/><path class="cls-1" d="M25.88,6.84c-.33.22-.45.41-.39.57C25.83,7.19,26,7,25.88,6.84Z"/><path class="cls-1" d="M144,6.77c.09.14.21.25.31.38a6,6,0,0,1,1.81.89A2.43,2.43,0,0,0,144,6.77Z"/><path class="cls-1" d="M72.75,53.37c.06,0,.13.06.18.1S72.87,53.36,72.75,53.37Z"/><path class="cls-1" d="M97.5,61.24a6.92,6.92,0,0,1-1,.1A2.36,2.36,0,0,0,97.5,61.24Z"/><path class="cls-1" d="M160.79,21.32c.43.48.13,0,0,0Z"/><path class="cls-1" d="M160.08,25.47a.47.47,0,0,0-.43,0A.58.58,0,0,1,160.08,25.47Z"/><path class="cls-1" d="M136.64,8.61l0,0C136.71,8.78,136.69,8.74,136.64,8.61Z"/><path class="cls-1" d="M161.1,22.28a4.67,4.67,0,0,0-.31-.78A4.15,4.15,0,0,0,161.1,22.28Z"/><path class="cls-1" d="M161.31,22l.27.51C161.72,22.48,161.75,22.36,161.31,22Z"/><path class="cls-1" d="M160.22,20.64a5.56,5.56,0,0,1,.57.86q-.06-.2,0-.18Z"/><path class="cls-1" d="M28.4,46.86l.09.11C29.11,46.86,28.87,46.83,28.4,46.86Z"/><path class="cls-1" d="M94.2,8.71l.07,0-.08,0Z"/><path class="cls-1" d="M92.2,9.25c.86-.93,1.34-.81,2-.6l-.64-2.17Z"/><path class="cls-1" d="M17.11,18.27c.48,0,.95.06,1.43.12-1,1.62-2.09,1.69-.66,2.1-.4-1.11.69-1.66,1.85-2.14s2.36-.94,2.07-2.09l1,.19c-.24.05-.24.2-.48.25,1.95.56.71-2,3-2.31.8,0,1.42.16,1,.57l1.53-1c.51-.07.49.35,0,.43l2.55-.8v.07a9.13,9.13,0,0,1,1.39-1.51c.74.19-.29.32-.06.56L33,11.84c.72.47-.38,1.3-1.4,1.43,1.84,2,1.09-.86,4.3-.07l-1.32.55c1.14,1.15,2.1.45,3.8,1-.43-.38-3.47-1.5-2-2.37a2.17,2.17,0,0,0,1.87-.53c.15.82,1,.47,2,.26l.1,1.1c1.09-.49.92-1,1.52-1.62,1.29-.08,1.67.73,2.07,1.4,2.06-.08-1.6-1.17.79-1.69,1.76.19,2.9-.39,4.88-1.27,1.24.25-.14.69.33,1l1-1c.26,0,.21.27.18.41.86-.42,0-1.1,1.35-1.54.28-1.26,3.07,1.52,4.72,0,.45.29-.16.69,0,1.11A15.2,15.2,0,0,0,61.1,7.88l1.73.63c-1.29-.75.25-1.84,1.62-2.7a10,10,0,0,0-1.13-.87l2.23-.69c.28.17.07.56-.28,1,.15-.1.29-.19.4-.28.82.37.43,1-.12,1.67L64.72,6a2.92,2.92,0,0,0-.86,2.1,1.79,1.79,0,0,1,.72-.33c-.14.19-.22.36-.15.47s.3-.15.65-.44L65.65,9l.1-.49,2.94.65c2-1.31,3.81-3.19,7.14-3.76-.81.91-.15,1.47-.18,2.54-.93-1.12-2.56.54-4.28.36.9.09.72.61.5.79l3-1.1c-.05.87.67.64,1.47,1-.63-1.72,2.27-1.2,3.52-1.73.08.58-.21,1.17-1.74,1.05,1.7,1.28,2.15-2.06,3.82-1-.37,0-.57-.07-.72.22.87-.52,3-.12,2.5.39h-.37c2.47.19,7.53,0,7.91-1.44a10.76,10.76,0,0,1-.49,2.07l4.48-4.9c-.41,1.26,1,4.27-1,5a3.54,3.54,0,0,0,2.56,0c-.4-.18-1-1.84-.43-1.94,1.5,1.42,1,.76,2.89,2-.6-.28.1-2.24,1-2.16-.15.29,0,2-.3,2.15l2.41-1.9c-.6.34-.14,1.64.39,2.2-.24-.39,2,.07,2.69-.11l-1-.47c2.67.34,2.7-2.68,5.36-2.53-.33.4-.84,2.45.51,2.72.63-1,2.83-4.73,5.24-5.42l.44.58,1.85-.58a44.05,44.05,0,0,1-6.19,5.69c1,.47.27.68,1.76.66.51.55-.83.79-1.27.81l3.44.43c-.11-1.17,2.67-1.07,2.58-2L114.46,9.8c-.12-1.16,2.28-3.24,4.74-2.91.6.49-.56,2-.53,2.42.34-.38,2.35-.64,2.55-.34l-1.06.56c1.31.51,2.3-1.4,3.82-.16.55.13,1.48,1.65,1.65,1-.73-1.41-.55-5.5.2-6.43a16.3,16.3,0,0,1,3.45,2.38c.76,1.17-1.75,2.24-1.1,3.24.08-.31.63-.62.86-.71.53.36-.39.92.86,1,.42-1.13,2.46.59.76-.87,1.27-.09,1.23.5,2.62.79-.27-.86,1.93-2.19,3.31-2.07-.17.26,0,.72,0,.94,2.44,1,3.47,2.06,5.53,3.25.05.35.83,1.25.15,1.42a2.17,2.17,0,0,1,1.49.22c.56,1.62-1.41-.77-1.22.84.45-.53,2,.25,3.13.58.4-1.05-1.83-1.64-2.92-1.81.75-1.26,3.22-1.5,5.73-.34,1.85,1,.1,1.3.51,1.37,2.78,2.68,4.23.24,5.92,3.3.28,1.59-1.26,1.35-1.52,2-1.42-.92-1.45-2.19-2.32-2.93.25.41.49.84.73,1.26A3.21,3.21,0,0,1,150,16.51c.13.65,1.31,1.74,2.6,3a16.58,16.58,0,0,1,3.3,4.23c.55.21,1.36.74,1.4.17l-.67-.66c0-1.17,1.91.79,1.44-.39A11.39,11.39,0,0,1,160,24.16a4.33,4.33,0,0,1,1.47,2.2l-.76.8c.26-.17-.06-1.38-.6-1.68.39.23.46,1,.59,1.79s.29,1.46,1.09,1.62c.07-.52.08-1,.11-1.55.27.27.58.54.91.84a10.47,10.47,0,0,1,.92,1,4.32,4.32,0,0,1,.73,1.25,4,4,0,0,1,.31,1.45c.85-1.11-.19-.39.65-2.12-.29.41-.51.29-.69-.07a8.74,8.74,0,0,1-.6-1.46c-.4-1.1-.88-2-1.21-.82a2.69,2.69,0,0,0,0-2.14A6.25,6.25,0,0,1,162.5,23c-.26.24-.21.88-.92-.49a1.65,1.65,0,0,1-.44-.1l0-.1v.09c-.08,0-.09,0,0,0a1.62,1.62,0,0,1,0,.94,4.45,4.45,0,0,1-1.7-1.1,6.29,6.29,0,0,0-1.53-1.18c-.41-.74.53,0,.52-.58L157.2,20c.51-.58-.57-2.5,1.12-1.34l-1.2-1.35a4.91,4.91,0,0,0-2.22-2.55c-.49-.7-2.12-.77-1.18-.74-.79-.48-1.57-1-2.37-1.42l.11-.16a21.13,21.13,0,0,0-3.54-2.28,11.91,11.91,0,0,1-3.64-3A12.8,12.8,0,0,1,141,5.71l0-.74c-1.22-.3-3.32-2-4.05-1.45-.38-1.07-1.85-1.59-3.44-1.84s-3.29-.26-4.3-.57l-.21.85a15.71,15.71,0,0,0-4.53,0l0,.78c-1.52.5-3.74-.84-6-.86.17-.29.75-.18,1.16,0-2.7-1.89-5.83,1.06-8.25-.26a1.61,1.61,0,0,1-1.48,0,.33.33,0,0,0,.15,0h-.25c-.27-.14-.54-.3-.84-.43a2.92,2.92,0,0,0,.71.43,8.29,8.29,0,0,0-1.89.27L107.42,1l-.17,0c-.68-.32-.56.38-.2,1a3.46,3.46,0,0,0-.94.48c-.53-1.35-1.84.42-2.58-1-.48.68-3.52.46-3.92,1.92,0-.19-.23-.28.15-.29a3,3,0,0,0-2.26,0l-.32-1.06-1.72,1.4c-1-.66-1.45-1-.41-1.84-2.5,1.23-2,.45-4.15,1.67L91,2.7c-.76,0-2,.93-2.42.36-1.69-1.31-8.37-.19-12.74-1.31.88,2-2-.86-2.19.7-.26-.46-.87-.72-.18-1.15-2.21.53-3.37-.67-4.87.71-.27-.47.46-.72.22-1-.18.11-.69.44-.94.16s.31-.41.66-.63C66.27.71,66.1,2.2,66,3.57,64.82,3,64.24,3.09,63.46,4c-.42-.42-1.11-.86.29-1.09-.8,0-4.89-.4-4.9.72-.27-.26-1.12,0-1.32.14A23.55,23.55,0,0,0,53.85,4l.5.14c-.58,1.38-1.43.41-2.82.71l0-.14c-3.33-.65-1.34.58-4.64-.16l.26.8c-.08,1.79-2.93-.7-4.69.22l.72.38C42.3,6.7,40.07,4,39,3.91c-.25-.12.31-.3.61-.46-2.84-.62-.18,1.12-2.12,1.7-.47-.52.23-1.55-1.13-1.43-.77-.37-3.54,2.54-5.57,1.84.5.36,1,.72.14,1.24-1.35.43-4.18-.81-5.1.89-.21-.07-.31-.17-.34-.28-.49.32-1.32.7-2.08,1.11a4.11,4.11,0,0,0-1.64,1.36c-.9-1.24-2.46-.36-3.84.51s-2.58,1.8-3.07.6c-1.06.51-2.11,1-3.15,1.6l0-.28a4.93,4.93,0,0,0-2.11,1.41,3.92,3.92,0,0,0-.75,1.46c-.54.15-.36-.27-.4-.42a8.25,8.25,0,0,0-3,2A7.31,7.31,0,0,0,4,20l-.89-.24c0,.5-1.1,1.41-2,3.05a7.38,7.38,0,0,0-.71,5.91A.66.66,0,0,1,0,28.28c.28,1.12.53,2.26.71,3.47a26.12,26.12,0,0,0,.9,3.41c.76,2.12,1.92,3.6,3.56,3.11.37.24.73.47,1.1.69l1.13.59c-1-1.18-.68-1.33-.17-1.34s1.18.07.94-.53a2.87,2.87,0,0,1,.95,1.53c.13.48,0,.81-.59.37l-.06-.28c-1.55.86,2.46,2.94,1.76,3.69,2.45,1.84,4.9,3.5,7.37,5.06l1.87,1.13,1.88,1A41.29,41.29,0,0,0,25.18,52l-.13-1.41c.58.27,1.17.53,1.76.76.37.44.3,1.16-1,.64.43.91,2.38.22,2.5,0,2.35,1.4-1.48,1-.72,1.34l1.09.3-.19-.23c1-.17,1.28-.69,2.82-.12.91.56.27.9.65,1.08,0,.08.09.16.59.22l2.3.78-.65-1.23c1.16-.17,2.15.68,1.39-.71.54,1.08,2.67,1.78,4.76,2.31s4.14.8,4.57,1.16a9.51,9.51,0,0,1,4.79.28c-.41-.28-.47-1.42,1-1-1,2.17,2.62,1.5,3.62,3.3-1-1.26,4.44.38,2.9-1.43,1.26.36,0,.87.87,1.54,3.18-.5,6.71,1.41,10.57,1.41.09-.3-.51-.81.34-1.19L71,61.41c.76-.08.81-1.7,2.12-.56-.18-.26-.44-.66.07-.73,3.68,1,7.53.83,11.36.75,1.92,0,3.84-.09,5.76.08A23.55,23.55,0,0,1,96,62c-1.05-.54-.36-.63.42-.69-.52-.12,0-.75-.13-1.15l3.23,1c.52-1.15,3.41-.29,3.67-1.4l-1,.26c1.24-1.37-2-2.73-1.93-4.4-1.41,1.54-4-2-6.27.19-.54-.33.43-.54.14-.92-.59.72-1.32.89-2.69.6l.15-.18c-3.82.22-5.47-.48-9.74-1l.3.82a3.29,3.29,0,0,1-1.53-.61c-1.1,1.21,2.58.14,1.58,1.48-1.17-1.68-6.52-.26-7.24-2.22-1.42-.1.35,1-1.06.87l-.34-.54-.4.64a1.49,1.49,0,0,1-1.35-1.27,3.08,3.08,0,0,0,.89-.1c-1.16-.67-3.39-.06-3.79-.28l1.33.42c-3.9.2-8.49-1-12.33-.48l.23.43c-2.93.27-2.21-.73-5.35-.92l.13-.07a4,4,0,0,1-2.38.14c.86-.31-1.31-1.12-.2-1.43-3.16.17-1.6.3-3.89,1.31l-.33-.71a2.93,2.93,0,0,1-2.5.52c1.38-.25-.76-1.17.8-1.56-2.86-2.05-5.06.23-6-2.1C36.56,50,41,50.29,40.05,50.45c.55.73-1.54,1-2.5.54s-1.12-2.65-3.6-3.38c.24.09.3,0,.54,0-.78-.73-2,0-2.9-1.06-1,.8-1.43-.58-2.07.64.79.17,1.57.36,2.37.49-1.4-.07-3.16,1-5-.55a4.25,4.25,0,0,1,1.51-.32c-.47-.59-1.27-.2-1.75-.84.67-1.17,2.82.77,4.53.27-.46-.78-2.9,0-1.71-1.14-1.65,1.43-2.25-1.14-4.41-.45l.43-.71a2.89,2.89,0,0,1-1.43-.1l1.26-.6c-1.63.25-2.12-1.79-3.46-2,1.21.62,1.26.9,1.08,1.17s-.58.53-.17,1c-1.81-.25-2-1-2.2-1.78a3,3,0,0,0-2.06-2.45c.49.14,1.4,1.36.52,1.3a4.31,4.31,0,0,1-1.32-1.85c-2.13-1.18-.14.91-1.28.77-.17-1.28-1.25-.32-2.32-.73l.49-.67c-1-1-1.34-.83-1.73-.6s-.74.46-1.5-.61c.53,0,1.06-.11,1.57-.18-.38-.2-.8-.39-1.17-.62l.83-.51a3,3,0,0,1-2.25-2,1,1,0,0,1-.83.53,1.33,1.33,0,0,1-1.18-.63c0-.93.88-.1-.09-1.35.61,0,1.39,0,1.13,1,.26-.1.6,0,.87-.14a1.94,1.94,0,0,0-.52-1.23,7.24,7.24,0,0,1-.66-.84,1,1,0,0,1,.08.57l-1-.64c-.3-.23-.59-.48-.9-.75.17-.4.51-.23.83-.09a2.76,2.76,0,0,0-.46-.44,1.76,1.76,0,0,1-.41-.6c.71,0,1.35-.17,1.85.39a5.66,5.66,0,0,1-.55-.66l-.29-.35L8,28c.29-.16.73-.79,1-.6.2-.36-.09-.77-.27-1.32a1.33,1.33,0,0,1,.3-1.58A.68.68,0,0,1,9,23.93a8.11,8.11,0,0,1,1.5-1.08A4.48,4.48,0,0,0,12,21.17c.51.15,1,.29,1.47.46.53-.46.05-.62-.37-.85s-.76-.52.21-1.34c1.36-1.22,1.07.59,1.77.6a6.51,6.51,0,0,1,1.12-1.7,2.67,2.67,0,0,1,2.29-.79C18,18,17.56,18,17.11,18.27Zm19.23-5.88c-.36.25-1,.93-1.41.5C35.19,11.87,35.63,12.25,36.34,12.39ZM67.61,7.27c-.29.29-.76.17-1.3-.12A2.08,2.08,0,0,1,67.61,7.27Zm88.19,9.45h-.06C155.28,15.8,155.43,16.13,155.8,16.72Zm1.16,1.7c.23.07.3,0,.33-.16-.25,0-.57-.29-.89-.7C156.34,17.81,156.42,18.1,157,18.42ZM32.28,54.1l-.3-.32C32.87,53.81,32.57,53.94,32.28,54.1Z"/><path class="cls-1" d="M64.06,8.57a1,1,0,0,1-.2-.45C63.71,8.27,63.71,8.43,64.06,8.57Z"/><path class="cls-1" d="M9.08,24.46s0,0,0,0a.57.57,0,0,0,.11.11Z"/><path class="cls-1" d="M128.82,10.07a1.55,1.55,0,0,1-.64-.53C128.13,9.74,128.27,9.93,128.82,10.07Z"/><path class="cls-1" d="M164.69,27.11l-.85-1.3a2.6,2.6,0,0,1,.34,1.35C164.34,27.06,164.47,26.68,164.69,27.11Z"/><path class="cls-1" d="M160.05,39.26c0,.21-.15.34-.13.55l.36.14C160.59,39.22,160.52,38.62,160.05,39.26Z"/><path class="cls-1" d="M162.6,29.39c-.62.34-.1,1,.23,2a.53.53,0,0,1,0-.17C163.79,31.28,163.29,30.23,162.6,29.39Z"/><path class="cls-1" d="M162.9,31.58a2.43,2.43,0,0,1,.18.88C163.47,32.53,163.14,32.07,162.9,31.58Z"/><path class="cls-1" d="M159.05,20.07c.15.45.87-.36.82,0C160.87,19.88,157.11,18.5,159.05,20.07Z"/><polygon class="cls-1" points="160.66 30.8 161.38 30.25 160.55 30.01 160.66 30.8"/><path class="cls-1" d="M158.11,24.5l.57,1.28c.11-.09.28,0,.46.15C158.68,25.21,158.3,24.32,158.11,24.5Z"/><path class="cls-1" d="M159.14,25.93a2.37,2.37,0,0,0,.68.91A4.87,4.87,0,0,0,159.14,25.93Z"/><polygon class="cls-1" points="159.77 29.17 159.77 28.73 159.42 27.84 159.77 29.17"/><path class="cls-1" d="M147.83,13.94l-1.33-.73c-.3.14-.09.53.42.78C147.32,14.05,147.83,14.31,147.83,13.94Z"/><path class="cls-1" d="M149.69,18.63c-.18-.39-.07-.55-.05-.91l-.74.77Z"/><path class="cls-1" d="M146.31,16.07c-.31.14-2.15-.62-.7.45C145.9,16.37,147.18,17.12,146.31,16.07Z"/><polygon class="cls-1" points="127.03 6.85 127.41 6.89 127.58 5.14 127.03 6.85"/><path class="cls-1" d="M107.37,10.1c1.74.45.43-1.08,2-.52.42-.41-1.29-.45-.86-.8C107.45,9.19,106.9,8.94,107.37,10.1Z"/><path class="cls-1" d="M108.52,8.78a5.27,5.27,0,0,0,.55-.26A1.53,1.53,0,0,0,108.52,8.78Z"/><polygon class="cls-1" points="101.75 61.97 102.92 62.26 102.14 61.72 101.75 61.97"/><path class="cls-1" d="M103.86,60.52l.35,1.1.61-1.06C104.57,60.63,104.08,60.76,103.86,60.52Z"/><path class="cls-1" d="M39.72,14.11l0-.28c-.21-.26-.47-.24-1-.2Z"/><polygon class="cls-1" points="25.23 16.37 25.47 16.32 24.75 15.48 25.23 16.37"/><path class="cls-1" d="M15,21.7c.36-.18.75-.59,1.16-.76C15.38,21.52,14.29,20.64,15,21.7Z"/></g></g></svg>