<svg xmlns="http://www.w3.org/2000/svg" viewBox="0 0 90.7 165.03"><defs><style>.cls-1,.cls-2{fill:none;stroke:#252e5b;stroke-miterlimit:10;}.cls-1{stroke-width:1.38px;}.cls-2{stroke-width:1.73px;}</style></defs><title>Asset 12</title><g id="Layer_2" data-name="Layer 2"><g id="Layer_1-2" data-name="Layer 1"><path class="cls-1" d="M52.6,2.69S35-8.88,25.47,23.66c0,0,1.47,14.22-2.93,23.75,0,0-18.84,10.27-10.77,25.66"/><path class="cls-1" d="M45.27,9.29S35,19.57,42.34,29.09"/><path class="cls-1" d="M46.49,11.25S46,25.74,53.49,28"/><path class="cls-1" d="M41.11,11.25S27.43,16.62,31.75,30"/><path class="cls-1" d="M31.75,26.72s-4.81,25.91,9.36,27.05A11.28,11.28,0,0,0,46.48,53"/><path class="cls-1" d="M48.61,15.48s5.21,16,9.12,16.29"/><path class="cls-1" d="M57.73,34.38s5.7-8.64,6.84,0S59,43.5,59,43.5"/><path class="cls-1" d="M57.08,43.5s-1.48,6.57,2.19,16.93"/><path class="cls-1" d="M52.6,3.75S73-1.12,75.16,29.09s6,31.19,6,31.19,6.86,9.66,1.14,18.54c-9.2,14.29-2.91,17.85-2.91,17.85L63.32,73.31"/><path class="cls-1" d="M41.11,53.77v11.4s.38,3.06,2.77,3.75c3.42,1,4.47,1.48,4.47-2.9"/><path class="cls-2" d="M41.11,63.22S4.29,41.06.87,124c0,0,5.7,9,20.12,6.71"/><path class="cls-1" d="M18.31,99.71s1.45,11.24,3.58,17.1C24.5,124,18.06,137,18.06,137L3.64,164.71"/><path class="cls-1" d="M82.33,100.52S63.56,76.06,61.22,69s-.07-5.94-5.77-18.32c0,0-8.47-14.5-6.84-7.17,0,0,4.07,7.33,4.88,12.06,0,0-.16-2.45-3.5-2.93,0,0-5.46,0-5.78,1.64,0,0-3.6,7.15,2.27,10.41,0,0,4.9,2.77,6.12,7.5S69,114,69.46,114.25s3.26,4.28,12.22,0Z"/><path class="cls-1" d="M83.54,76.52s5.14,3.8,6.45,27.59c0,0,.67,10.26-5.13,14,0,0-.41,3.74-11.33,3.26a11.16,11.16,0,0,1-8.83-8.8c-1.76-7.82,0-9.38,0-9.38"/><path class="cls-1" d="M73.53,121.38s-6.19,4.07-1.79,17.92,16.94,24.27,16.94,24.27"/><line class="cls-1" x1="37.37" y1="29.98" x2="37.37" y2="33.89"/><line class="cls-1" x1="48.61" y1="30.54" x2="48.61" y2="33.89"/><path class="cls-1" d="M38.72,26.72s-2.33-2.93-6.08,0"/><path class="cls-1" d="M46.48,28s3.6-4.32,6.12-1.31"/><path class="cls-1" d="M41.11,33.89s-.23,3.58-1.41,5c0,0,2.49,1.79,3.42.65"/><path class="cls-1" d="M41.11,47.25s2-3.1,3.1,0C44.21,47.25,42.74,51,41.11,47.25Z"/><path class="cls-1" d="M50.73,55.56s.76-3-6.95-.23"/><path class="cls-1" d="M49.54,58.16s.28-2.84-6.3-.72"/><path class="cls-1" d="M47.89,60.77s1.58-2.84-5-.72"/><line class="cls-1" x1="10.56" y1="130.34" x2="13.36" y2="146.65"/></g></g></svg>